G04 #@! TF.GenerationSoftware,KiCad,Pcbnew,9.0.6*
G04 #@! TF.CreationDate,2025-12-27T09:51:03+05:30*
G04 #@! TF.ProjectId,BC- LM2596 -ADJ,42432d20-4c4d-4323-9539-36202d41444a,rev?*
G04 #@! TF.SameCoordinates,Original*
G04 #@! TF.FileFunction,Legend,Top*
G04 #@! TF.FilePolarity,Positive*
%FSLAX46Y46*%
G04 Gerber Fmt 4.6, Leading zero omitted, Abs format (unit mm)*
G04 Created by KiCad (PCBNEW 9.0.6) date 2025-12-27 09:51:03*
%MOMM*%
%LPD*%
G01*
G04 APERTURE LIST*
%ADD10C,0.200000*%
%ADD11C,0.150000*%
%ADD12C,0.120000*%
G04 APERTURE END LIST*
D10*
X167196266Y-116780326D02*
X167196266Y-116018422D01*
X131429673Y-120217219D02*
X131429673Y-119217219D01*
X132001101Y-120217219D02*
X131572530Y-119645790D01*
X132001101Y-119217219D02*
X131429673Y-119788647D01*
X132429673Y-120217219D02*
X132429673Y-119217219D01*
X132905863Y-120217219D02*
X132905863Y-119217219D01*
X132905863Y-119217219D02*
X133477291Y-120217219D01*
X133477291Y-120217219D02*
X133477291Y-119217219D01*
X134477291Y-119264838D02*
X134382053Y-119217219D01*
X134382053Y-119217219D02*
X134239196Y-119217219D01*
X134239196Y-119217219D02*
X134096339Y-119264838D01*
X134096339Y-119264838D02*
X134001101Y-119360076D01*
X134001101Y-119360076D02*
X133953482Y-119455314D01*
X133953482Y-119455314D02*
X133905863Y-119645790D01*
X133905863Y-119645790D02*
X133905863Y-119788647D01*
X133905863Y-119788647D02*
X133953482Y-119979123D01*
X133953482Y-119979123D02*
X134001101Y-120074361D01*
X134001101Y-120074361D02*
X134096339Y-120169600D01*
X134096339Y-120169600D02*
X134239196Y-120217219D01*
X134239196Y-120217219D02*
X134334434Y-120217219D01*
X134334434Y-120217219D02*
X134477291Y-120169600D01*
X134477291Y-120169600D02*
X134524910Y-120121980D01*
X134524910Y-120121980D02*
X134524910Y-119788647D01*
X134524910Y-119788647D02*
X134334434Y-119788647D01*
X129376816Y-100767219D02*
X129710149Y-101767219D01*
X129710149Y-101767219D02*
X130043482Y-100767219D01*
X130376816Y-101767219D02*
X130376816Y-100767219D01*
X130853006Y-101767219D02*
X130853006Y-100767219D01*
X130853006Y-100767219D02*
X131424434Y-101767219D01*
X131424434Y-101767219D02*
X131424434Y-100767219D01*
X125669673Y-104436266D02*
X126431578Y-104436266D01*
X126050625Y-104817219D02*
X126050625Y-104055314D01*
X160076816Y-119217219D02*
X160410149Y-120217219D01*
X160410149Y-120217219D02*
X160743482Y-119217219D01*
X161267292Y-119217219D02*
X161457768Y-119217219D01*
X161457768Y-119217219D02*
X161553006Y-119264838D01*
X161553006Y-119264838D02*
X161648244Y-119360076D01*
X161648244Y-119360076D02*
X161695863Y-119550552D01*
X161695863Y-119550552D02*
X161695863Y-119883885D01*
X161695863Y-119883885D02*
X161648244Y-120074361D01*
X161648244Y-120074361D02*
X161553006Y-120169600D01*
X161553006Y-120169600D02*
X161457768Y-120217219D01*
X161457768Y-120217219D02*
X161267292Y-120217219D01*
X161267292Y-120217219D02*
X161172054Y-120169600D01*
X161172054Y-120169600D02*
X161076816Y-120074361D01*
X161076816Y-120074361D02*
X161029197Y-119883885D01*
X161029197Y-119883885D02*
X161029197Y-119550552D01*
X161029197Y-119550552D02*
X161076816Y-119360076D01*
X161076816Y-119360076D02*
X161172054Y-119264838D01*
X161172054Y-119264838D02*
X161267292Y-119217219D01*
X162124435Y-119217219D02*
X162124435Y-120026742D01*
X162124435Y-120026742D02*
X162172054Y-120121980D01*
X162172054Y-120121980D02*
X162219673Y-120169600D01*
X162219673Y-120169600D02*
X162314911Y-120217219D01*
X162314911Y-120217219D02*
X162505387Y-120217219D01*
X162505387Y-120217219D02*
X162600625Y-120169600D01*
X162600625Y-120169600D02*
X162648244Y-120121980D01*
X162648244Y-120121980D02*
X162695863Y-120026742D01*
X162695863Y-120026742D02*
X162695863Y-119217219D01*
X163029197Y-119217219D02*
X163600625Y-119217219D01*
X163314911Y-120217219D02*
X163314911Y-119217219D01*
X166369673Y-104336266D02*
X167131578Y-104336266D01*
X166750625Y-104717219D02*
X166750625Y-103955314D01*
X125836266Y-116880326D02*
X125836266Y-116118422D01*
D11*
X149209819Y-101791666D02*
X148733628Y-102124999D01*
X149209819Y-102363094D02*
X148209819Y-102363094D01*
X148209819Y-102363094D02*
X148209819Y-101982142D01*
X148209819Y-101982142D02*
X148257438Y-101886904D01*
X148257438Y-101886904D02*
X148305057Y-101839285D01*
X148305057Y-101839285D02*
X148400295Y-101791666D01*
X148400295Y-101791666D02*
X148543152Y-101791666D01*
X148543152Y-101791666D02*
X148638390Y-101839285D01*
X148638390Y-101839285D02*
X148686009Y-101886904D01*
X148686009Y-101886904D02*
X148733628Y-101982142D01*
X148733628Y-101982142D02*
X148733628Y-102363094D01*
X148305057Y-101410713D02*
X148257438Y-101363094D01*
X148257438Y-101363094D02*
X148209819Y-101267856D01*
X148209819Y-101267856D02*
X148209819Y-101029761D01*
X148209819Y-101029761D02*
X148257438Y-100934523D01*
X148257438Y-100934523D02*
X148305057Y-100886904D01*
X148305057Y-100886904D02*
X148400295Y-100839285D01*
X148400295Y-100839285D02*
X148495533Y-100839285D01*
X148495533Y-100839285D02*
X148638390Y-100886904D01*
X148638390Y-100886904D02*
X149209819Y-101458332D01*
X149209819Y-101458332D02*
X149209819Y-100839285D01*
X151933333Y-114454819D02*
X151457143Y-114454819D01*
X151457143Y-114454819D02*
X151457143Y-113454819D01*
X152790476Y-114454819D02*
X152219048Y-114454819D01*
X152504762Y-114454819D02*
X152504762Y-113454819D01*
X152504762Y-113454819D02*
X152409524Y-113597676D01*
X152409524Y-113597676D02*
X152314286Y-113692914D01*
X152314286Y-113692914D02*
X152219048Y-113740533D01*
X162233333Y-117884580D02*
X162185714Y-117932200D01*
X162185714Y-117932200D02*
X162042857Y-117979819D01*
X162042857Y-117979819D02*
X161947619Y-117979819D01*
X161947619Y-117979819D02*
X161804762Y-117932200D01*
X161804762Y-117932200D02*
X161709524Y-117836961D01*
X161709524Y-117836961D02*
X161661905Y-117741723D01*
X161661905Y-117741723D02*
X161614286Y-117551247D01*
X161614286Y-117551247D02*
X161614286Y-117408390D01*
X161614286Y-117408390D02*
X161661905Y-117217914D01*
X161661905Y-117217914D02*
X161709524Y-117122676D01*
X161709524Y-117122676D02*
X161804762Y-117027438D01*
X161804762Y-117027438D02*
X161947619Y-116979819D01*
X161947619Y-116979819D02*
X162042857Y-116979819D01*
X162042857Y-116979819D02*
X162185714Y-117027438D01*
X162185714Y-117027438D02*
X162233333Y-117075057D01*
X163090476Y-117313152D02*
X163090476Y-117979819D01*
X162852381Y-116932200D02*
X162614286Y-117646485D01*
X162614286Y-117646485D02*
X163233333Y-117646485D01*
X149284580Y-105016666D02*
X149332200Y-105064285D01*
X149332200Y-105064285D02*
X149379819Y-105207142D01*
X149379819Y-105207142D02*
X149379819Y-105302380D01*
X149379819Y-105302380D02*
X149332200Y-105445237D01*
X149332200Y-105445237D02*
X149236961Y-105540475D01*
X149236961Y-105540475D02*
X149141723Y-105588094D01*
X149141723Y-105588094D02*
X148951247Y-105635713D01*
X148951247Y-105635713D02*
X148808390Y-105635713D01*
X148808390Y-105635713D02*
X148617914Y-105588094D01*
X148617914Y-105588094D02*
X148522676Y-105540475D01*
X148522676Y-105540475D02*
X148427438Y-105445237D01*
X148427438Y-105445237D02*
X148379819Y-105302380D01*
X148379819Y-105302380D02*
X148379819Y-105207142D01*
X148379819Y-105207142D02*
X148427438Y-105064285D01*
X148427438Y-105064285D02*
X148475057Y-105016666D01*
X148379819Y-104683332D02*
X148379819Y-104064285D01*
X148379819Y-104064285D02*
X148760771Y-104397618D01*
X148760771Y-104397618D02*
X148760771Y-104254761D01*
X148760771Y-104254761D02*
X148808390Y-104159523D01*
X148808390Y-104159523D02*
X148856009Y-104111904D01*
X148856009Y-104111904D02*
X148951247Y-104064285D01*
X148951247Y-104064285D02*
X149189342Y-104064285D01*
X149189342Y-104064285D02*
X149284580Y-104111904D01*
X149284580Y-104111904D02*
X149332200Y-104159523D01*
X149332200Y-104159523D02*
X149379819Y-104254761D01*
X149379819Y-104254761D02*
X149379819Y-104540475D01*
X149379819Y-104540475D02*
X149332200Y-104635713D01*
X149332200Y-104635713D02*
X149284580Y-104683332D01*
X131359580Y-117166666D02*
X131407200Y-117214285D01*
X131407200Y-117214285D02*
X131454819Y-117357142D01*
X131454819Y-117357142D02*
X131454819Y-117452380D01*
X131454819Y-117452380D02*
X131407200Y-117595237D01*
X131407200Y-117595237D02*
X131311961Y-117690475D01*
X131311961Y-117690475D02*
X131216723Y-117738094D01*
X131216723Y-117738094D02*
X131026247Y-117785713D01*
X131026247Y-117785713D02*
X130883390Y-117785713D01*
X130883390Y-117785713D02*
X130692914Y-117738094D01*
X130692914Y-117738094D02*
X130597676Y-117690475D01*
X130597676Y-117690475D02*
X130502438Y-117595237D01*
X130502438Y-117595237D02*
X130454819Y-117452380D01*
X130454819Y-117452380D02*
X130454819Y-117357142D01*
X130454819Y-117357142D02*
X130502438Y-117214285D01*
X130502438Y-117214285D02*
X130550057Y-117166666D01*
X130550057Y-116785713D02*
X130502438Y-116738094D01*
X130502438Y-116738094D02*
X130454819Y-116642856D01*
X130454819Y-116642856D02*
X130454819Y-116404761D01*
X130454819Y-116404761D02*
X130502438Y-116309523D01*
X130502438Y-116309523D02*
X130550057Y-116261904D01*
X130550057Y-116261904D02*
X130645295Y-116214285D01*
X130645295Y-116214285D02*
X130740533Y-116214285D01*
X130740533Y-116214285D02*
X130883390Y-116261904D01*
X130883390Y-116261904D02*
X131454819Y-116833332D01*
X131454819Y-116833332D02*
X131454819Y-116214285D01*
X162036905Y-105554819D02*
X162036905Y-104554819D01*
X162036905Y-104554819D02*
X162275000Y-104554819D01*
X162275000Y-104554819D02*
X162417857Y-104602438D01*
X162417857Y-104602438D02*
X162513095Y-104697676D01*
X162513095Y-104697676D02*
X162560714Y-104792914D01*
X162560714Y-104792914D02*
X162608333Y-104983390D01*
X162608333Y-104983390D02*
X162608333Y-105126247D01*
X162608333Y-105126247D02*
X162560714Y-105316723D01*
X162560714Y-105316723D02*
X162513095Y-105411961D01*
X162513095Y-105411961D02*
X162417857Y-105507200D01*
X162417857Y-105507200D02*
X162275000Y-105554819D01*
X162275000Y-105554819D02*
X162036905Y-105554819D01*
X162989286Y-104650057D02*
X163036905Y-104602438D01*
X163036905Y-104602438D02*
X163132143Y-104554819D01*
X163132143Y-104554819D02*
X163370238Y-104554819D01*
X163370238Y-104554819D02*
X163465476Y-104602438D01*
X163465476Y-104602438D02*
X163513095Y-104650057D01*
X163513095Y-104650057D02*
X163560714Y-104745295D01*
X163560714Y-104745295D02*
X163560714Y-104840533D01*
X163560714Y-104840533D02*
X163513095Y-104983390D01*
X163513095Y-104983390D02*
X162941667Y-105554819D01*
X162941667Y-105554819D02*
X163560714Y-105554819D01*
X132854819Y-102761904D02*
X133664342Y-102761904D01*
X133664342Y-102761904D02*
X133759580Y-102714285D01*
X133759580Y-102714285D02*
X133807200Y-102666666D01*
X133807200Y-102666666D02*
X133854819Y-102571428D01*
X133854819Y-102571428D02*
X133854819Y-102380952D01*
X133854819Y-102380952D02*
X133807200Y-102285714D01*
X133807200Y-102285714D02*
X133759580Y-102238095D01*
X133759580Y-102238095D02*
X133664342Y-102190476D01*
X133664342Y-102190476D02*
X132854819Y-102190476D01*
X133854819Y-101190476D02*
X133854819Y-101761904D01*
X133854819Y-101476190D02*
X132854819Y-101476190D01*
X132854819Y-101476190D02*
X132997676Y-101571428D01*
X132997676Y-101571428D02*
X133092914Y-101666666D01*
X133092914Y-101666666D02*
X133140533Y-101761904D01*
X144111905Y-119504819D02*
X144111905Y-118504819D01*
X144111905Y-118504819D02*
X144350000Y-118504819D01*
X144350000Y-118504819D02*
X144492857Y-118552438D01*
X144492857Y-118552438D02*
X144588095Y-118647676D01*
X144588095Y-118647676D02*
X144635714Y-118742914D01*
X144635714Y-118742914D02*
X144683333Y-118933390D01*
X144683333Y-118933390D02*
X144683333Y-119076247D01*
X144683333Y-119076247D02*
X144635714Y-119266723D01*
X144635714Y-119266723D02*
X144588095Y-119361961D01*
X144588095Y-119361961D02*
X144492857Y-119457200D01*
X144492857Y-119457200D02*
X144350000Y-119504819D01*
X144350000Y-119504819D02*
X144111905Y-119504819D01*
X145635714Y-119504819D02*
X145064286Y-119504819D01*
X145350000Y-119504819D02*
X145350000Y-118504819D01*
X145350000Y-118504819D02*
X145254762Y-118647676D01*
X145254762Y-118647676D02*
X145159524Y-118742914D01*
X145159524Y-118742914D02*
X145064286Y-118790533D01*
X157354761Y-106679819D02*
X157021428Y-106203628D01*
X156783333Y-106679819D02*
X156783333Y-105679819D01*
X156783333Y-105679819D02*
X157164285Y-105679819D01*
X157164285Y-105679819D02*
X157259523Y-105727438D01*
X157259523Y-105727438D02*
X157307142Y-105775057D01*
X157307142Y-105775057D02*
X157354761Y-105870295D01*
X157354761Y-105870295D02*
X157354761Y-106013152D01*
X157354761Y-106013152D02*
X157307142Y-106108390D01*
X157307142Y-106108390D02*
X157259523Y-106156009D01*
X157259523Y-106156009D02*
X157164285Y-106203628D01*
X157164285Y-106203628D02*
X156783333Y-106203628D01*
X157640476Y-105679819D02*
X157973809Y-106679819D01*
X157973809Y-106679819D02*
X158307142Y-105679819D01*
X159164285Y-106679819D02*
X158592857Y-106679819D01*
X158878571Y-106679819D02*
X158878571Y-105679819D01*
X158878571Y-105679819D02*
X158783333Y-105822676D01*
X158783333Y-105822676D02*
X158688095Y-105917914D01*
X158688095Y-105917914D02*
X158592857Y-105965533D01*
X160608333Y-104904819D02*
X160275000Y-104428628D01*
X160036905Y-104904819D02*
X160036905Y-103904819D01*
X160036905Y-103904819D02*
X160417857Y-103904819D01*
X160417857Y-103904819D02*
X160513095Y-103952438D01*
X160513095Y-103952438D02*
X160560714Y-104000057D01*
X160560714Y-104000057D02*
X160608333Y-104095295D01*
X160608333Y-104095295D02*
X160608333Y-104238152D01*
X160608333Y-104238152D02*
X160560714Y-104333390D01*
X160560714Y-104333390D02*
X160513095Y-104381009D01*
X160513095Y-104381009D02*
X160417857Y-104428628D01*
X160417857Y-104428628D02*
X160036905Y-104428628D01*
X161560714Y-104904819D02*
X160989286Y-104904819D01*
X161275000Y-104904819D02*
X161275000Y-103904819D01*
X161275000Y-103904819D02*
X161179762Y-104047676D01*
X161179762Y-104047676D02*
X161084524Y-104142914D01*
X161084524Y-104142914D02*
X160989286Y-104190533D01*
X126633333Y-115984580D02*
X126585714Y-116032200D01*
X126585714Y-116032200D02*
X126442857Y-116079819D01*
X126442857Y-116079819D02*
X126347619Y-116079819D01*
X126347619Y-116079819D02*
X126204762Y-116032200D01*
X126204762Y-116032200D02*
X126109524Y-115936961D01*
X126109524Y-115936961D02*
X126061905Y-115841723D01*
X126061905Y-115841723D02*
X126014286Y-115651247D01*
X126014286Y-115651247D02*
X126014286Y-115508390D01*
X126014286Y-115508390D02*
X126061905Y-115317914D01*
X126061905Y-115317914D02*
X126109524Y-115222676D01*
X126109524Y-115222676D02*
X126204762Y-115127438D01*
X126204762Y-115127438D02*
X126347619Y-115079819D01*
X126347619Y-115079819D02*
X126442857Y-115079819D01*
X126442857Y-115079819D02*
X126585714Y-115127438D01*
X126585714Y-115127438D02*
X126633333Y-115175057D01*
X127585714Y-116079819D02*
X127014286Y-116079819D01*
X127300000Y-116079819D02*
X127300000Y-115079819D01*
X127300000Y-115079819D02*
X127204762Y-115222676D01*
X127204762Y-115222676D02*
X127109524Y-115317914D01*
X127109524Y-115317914D02*
X127014286Y-115365533D01*
D12*
X146802500Y-101387742D02*
X146802500Y-101862258D01*
X147847500Y-101387742D02*
X147847500Y-101862258D01*
X145800000Y-119700000D02*
X145800000Y-107500000D01*
X146200000Y-107100000D02*
X148550000Y-107100000D01*
X146200000Y-120100000D02*
X148550000Y-120100000D01*
X148550000Y-120100000D02*
X148550000Y-120850000D01*
X156050000Y-107100000D02*
X158400000Y-107100000D01*
X156050000Y-120100000D02*
X158400000Y-120100000D01*
X158800000Y-107500000D02*
X158800000Y-119700000D01*
X145800000Y-107500000D02*
G75*
G02*
X146200000Y-107100000I400000J0D01*
G01*
X146200000Y-120100000D02*
G75*
G02*
X145800000Y-119700000I-1J399999D01*
G01*
X158400000Y-107100000D02*
G75*
G02*
X158800000Y-107500000I0J-400000D01*
G01*
X158800000Y-119700000D02*
G75*
G02*
X158400000Y-120100000I-399999J-1D01*
G01*
X159190000Y-108079437D02*
X159190000Y-115535000D01*
X159190000Y-115535000D02*
X161940000Y-115535000D01*
X160254437Y-107015000D02*
X159190000Y-108079437D01*
X160254437Y-107015000D02*
X161940000Y-107015000D01*
X165960000Y-105775000D02*
X165960000Y-106775000D01*
X166460000Y-106275000D02*
X165460000Y-106275000D01*
X166645563Y-107015000D02*
X164960000Y-107015000D01*
X166645563Y-107015000D02*
X167710000Y-108079437D01*
X167710000Y-108079437D02*
X167710000Y-115535000D01*
X167710000Y-115535000D02*
X164960000Y-115535000D01*
X125620000Y-100620000D02*
X127000000Y-100620000D01*
X125620000Y-102000000D02*
X125620000Y-100620000D01*
X125620000Y-103270000D02*
X125620000Y-103380000D01*
X125620000Y-103270000D02*
X128380000Y-103270000D01*
X125620000Y-103380000D02*
X128380000Y-103380000D01*
X128380000Y-103270000D02*
X128380000Y-103380000D01*
X125720000Y-117595000D02*
X127100000Y-117595000D01*
X125720000Y-118975000D02*
X125720000Y-117595000D01*
X125720000Y-120245000D02*
X125720000Y-120355000D01*
X125720000Y-120245000D02*
X128480000Y-120245000D01*
X125720000Y-120355000D02*
X128480000Y-120355000D01*
X128480000Y-120245000D02*
X128480000Y-120355000D01*
X146890000Y-104990580D02*
X146890000Y-104709420D01*
X147910000Y-104990580D02*
X147910000Y-104709420D01*
X131990000Y-116859420D02*
X131990000Y-117140580D01*
X133010000Y-116859420D02*
X133010000Y-117140580D01*
X162015000Y-101225000D02*
X162015000Y-103510000D01*
X162015000Y-103510000D02*
X163485000Y-103510000D01*
X163485000Y-103510000D02*
X163485000Y-101225000D01*
X134600000Y-109985000D02*
X134600000Y-111350000D01*
X134600000Y-111350000D02*
X135550000Y-111350000D01*
X145000000Y-109985000D02*
X145000000Y-111350000D01*
X145000000Y-111350000D02*
X144050000Y-111350000D01*
X135590000Y-114175000D02*
X135120000Y-114515000D01*
X135120000Y-113835000D01*
X135590000Y-114175000D01*
G36*
X135590000Y-114175000D02*
G01*
X135120000Y-114515000D01*
X135120000Y-113835000D01*
X135590000Y-114175000D01*
G37*
X143760000Y-117400000D02*
X138250000Y-117400000D01*
X143760000Y-120700000D02*
X138250000Y-120700000D01*
X143760000Y-120700000D02*
X143760000Y-117400000D01*
X149765000Y-100330000D02*
X159515000Y-100330000D01*
X149765000Y-105380000D02*
X149765000Y-100330000D01*
X159515000Y-100330000D02*
X159515000Y-105380000D01*
X159515000Y-105380000D02*
X149765000Y-105380000D01*
X164545000Y-117520000D02*
X165925000Y-117520000D01*
X164545000Y-118900000D02*
X164545000Y-117520000D01*
X164545000Y-120170000D02*
X164545000Y-120280000D01*
X164545000Y-120170000D02*
X167305000Y-120170000D01*
X164545000Y-120280000D02*
X167305000Y-120280000D01*
X167305000Y-120170000D02*
X167305000Y-120280000D01*
X164620000Y-100570000D02*
X166000000Y-100570000D01*
X164620000Y-101950000D02*
X164620000Y-100570000D01*
X164620000Y-103220000D02*
X164620000Y-103330000D01*
X164620000Y-103220000D02*
X167380000Y-103220000D01*
X164620000Y-103330000D02*
X167380000Y-103330000D01*
X167380000Y-103220000D02*
X167380000Y-103330000D01*
X160302500Y-102237258D02*
X160302500Y-101762742D01*
X161347500Y-102237258D02*
X161347500Y-101762742D01*
X125290000Y-107229437D02*
X125290000Y-114685000D01*
X125290000Y-114685000D02*
X128040000Y-114685000D01*
X126354437Y-106165000D02*
X125290000Y-107229437D01*
X126354437Y-106165000D02*
X128040000Y-106165000D01*
X132060000Y-104925000D02*
X132060000Y-105925000D01*
X132560000Y-105425000D02*
X131560000Y-105425000D01*
X132745563Y-106165000D02*
X131060000Y-106165000D01*
X132745563Y-106165000D02*
X133810000Y-107229437D01*
X133810000Y-107229437D02*
X133810000Y-114685000D01*
X133810000Y-114685000D02*
X131060000Y-114685000D01*
M02*
