G04 #@! TF.GenerationSoftware,KiCad,Pcbnew,9.0.6*
G04 #@! TF.CreationDate,2025-12-27T09:51:03+05:30*
G04 #@! TF.ProjectId,BC- LM2596 -ADJ,42432d20-4c4d-4323-9539-36202d41444a,rev?*
G04 #@! TF.SameCoordinates,Original*
G04 #@! TF.FileFunction,Copper,L1,Top*
G04 #@! TF.FilePolarity,Positive*
%FSLAX46Y46*%
G04 Gerber Fmt 4.6, Leading zero omitted, Abs format (unit mm)*
G04 Created by KiCad (PCBNEW 9.0.6) date 2025-12-27 09:51:03*
%MOMM*%
%LPD*%
G01*
G04 APERTURE LIST*
G04 Aperture macros list*
%AMRoundRect*
0 Rectangle with rounded corners*
0 $1 Rounding radius*
0 $2 $3 $4 $5 $6 $7 $8 $9 X,Y pos of 4 corners*
0 Add a 4 corners polygon primitive as box body*
4,1,4,$2,$3,$4,$5,$6,$7,$8,$9,$2,$3,0*
0 Add four circle primitives for the rounded corners*
1,1,$1+$1,$2,$3*
1,1,$1+$1,$4,$5*
1,1,$1+$1,$6,$7*
1,1,$1+$1,$8,$9*
0 Add four rect primitives between the rounded corners*
20,1,$1+$1,$2,$3,$4,$5,0*
20,1,$1+$1,$4,$5,$6,$7,0*
20,1,$1+$1,$6,$7,$8,$9,0*
20,1,$1+$1,$8,$9,$2,$3,0*%
G04 Aperture macros list end*
G04 #@! TA.AperFunction,SMDPad,CuDef*
%ADD10RoundRect,0.200000X-0.275000X0.200000X-0.275000X-0.200000X0.275000X-0.200000X0.275000X0.200000X0*%
G04 #@! TD*
G04 #@! TA.AperFunction,SMDPad,CuDef*
%ADD11R,7.000000X4.000000*%
G04 #@! TD*
G04 #@! TA.AperFunction,SMDPad,CuDef*
%ADD12RoundRect,0.250000X-1.000000X1.500000X-1.000000X-1.500000X1.000000X-1.500000X1.000000X1.500000X0*%
G04 #@! TD*
G04 #@! TA.AperFunction,ComponentPad*
%ADD13R,1.700000X1.700000*%
G04 #@! TD*
G04 #@! TA.AperFunction,SMDPad,CuDef*
%ADD14RoundRect,0.225000X0.250000X-0.225000X0.250000X0.225000X-0.250000X0.225000X-0.250000X-0.225000X0*%
G04 #@! TD*
G04 #@! TA.AperFunction,SMDPad,CuDef*
%ADD15RoundRect,0.225000X-0.250000X0.225000X-0.250000X-0.225000X0.250000X-0.225000X0.250000X0.225000X0*%
G04 #@! TD*
G04 #@! TA.AperFunction,SMDPad,CuDef*
%ADD16RoundRect,0.218750X0.256250X-0.218750X0.256250X0.218750X-0.256250X0.218750X-0.256250X-0.218750X0*%
G04 #@! TD*
G04 #@! TA.AperFunction,SMDPad,CuDef*
%ADD17RoundRect,0.250000X0.300000X-2.050000X0.300000X2.050000X-0.300000X2.050000X-0.300000X-2.050000X0*%
G04 #@! TD*
G04 #@! TA.AperFunction,SMDPad,CuDef*
%ADD18RoundRect,0.250002X5.149998X-4.449998X5.149998X4.449998X-5.149998X4.449998X-5.149998X-4.449998X0*%
G04 #@! TD*
G04 #@! TA.AperFunction,SMDPad,CuDef*
%ADD19RoundRect,0.250000X1.000000X0.650000X-1.000000X0.650000X-1.000000X-0.650000X1.000000X-0.650000X0*%
G04 #@! TD*
G04 #@! TA.AperFunction,ComponentPad*
%ADD20C,1.440000*%
G04 #@! TD*
G04 #@! TA.AperFunction,SMDPad,CuDef*
%ADD21RoundRect,0.200000X0.275000X-0.200000X0.275000X0.200000X-0.275000X0.200000X-0.275000X-0.200000X0*%
G04 #@! TD*
G04 #@! TA.AperFunction,ViaPad*
%ADD22C,0.450000*%
G04 #@! TD*
G04 #@! TA.AperFunction,ViaPad*
%ADD23C,0.600000*%
G04 #@! TD*
G04 #@! TA.AperFunction,Conductor*
%ADD24C,0.500000*%
G04 #@! TD*
G04 APERTURE END LIST*
D10*
X147325000Y-100800000D03*
X147325000Y-102450000D03*
D11*
X152300000Y-118600000D03*
X152300000Y-108600000D03*
D12*
X163450000Y-108025000D03*
X163450000Y-114525000D03*
D13*
X127000000Y-102000000D03*
X127100000Y-118975000D03*
D14*
X147400000Y-105625000D03*
X147400000Y-104075000D03*
D15*
X132500000Y-116225000D03*
X132500000Y-117775000D03*
D16*
X162750000Y-102812500D03*
X162750000Y-101237500D03*
D17*
X136400000Y-114175000D03*
X138100000Y-114175000D03*
X139800000Y-114175000D03*
D18*
X139800000Y-105025000D03*
D17*
X141500000Y-114175000D03*
X143200000Y-114175000D03*
D19*
X142250000Y-119050000D03*
X138250000Y-119050000D03*
D20*
X157180000Y-102850000D03*
X154640000Y-102850000D03*
X152100000Y-102850000D03*
D13*
X165925000Y-118900000D03*
X166000000Y-101950000D03*
D21*
X160825000Y-102825000D03*
X160825000Y-101175000D03*
D12*
X129550000Y-107175000D03*
X129550000Y-113675000D03*
D22*
X144750000Y-112300000D03*
X139850000Y-110900000D03*
X144800000Y-114200000D03*
X144800000Y-113250000D03*
X144900000Y-115250000D03*
D23*
X148850000Y-103600000D03*
D22*
X162750000Y-104300000D03*
X144950000Y-116300000D03*
D24*
X162750000Y-104300000D02*
X162750000Y-102812500D01*
X138100000Y-114175000D02*
X138100000Y-116550000D01*
X140650000Y-116950000D02*
X142250000Y-118550000D01*
X151925000Y-118975000D02*
X152300000Y-118600000D01*
X142250000Y-118975000D02*
X141175000Y-118975000D01*
X138100000Y-116550000D02*
X138500000Y-116950000D01*
X142250000Y-118550000D02*
X142250000Y-118975000D01*
X138500000Y-116950000D02*
X140650000Y-116950000D01*
X162687500Y-101175000D02*
X162750000Y-101237500D01*
X160825000Y-101175000D02*
X162687500Y-101175000D01*
X145247292Y-110176000D02*
X146100000Y-109323292D01*
X141500000Y-114175000D02*
X141500000Y-111776000D01*
X148950000Y-100800000D02*
X149950000Y-101800000D01*
X152100000Y-102850000D02*
X154640000Y-102850000D01*
X147325000Y-100800000D02*
X148950000Y-100800000D01*
X149950000Y-101800000D02*
X149950000Y-102650000D01*
X141500000Y-111776000D02*
X143100000Y-110176000D01*
X150150000Y-102850000D02*
X152100000Y-102850000D01*
X146100000Y-102025000D02*
X147325000Y-100800000D01*
X143100000Y-110176000D02*
X145247292Y-110176000D01*
X149950000Y-102650000D02*
X150150000Y-102850000D01*
X146100000Y-109323292D02*
X146100000Y-102025000D01*
G04 #@! TA.AperFunction,Conductor*
G36*
X167617539Y-111669685D02*
G01*
X167663294Y-111722489D01*
X167674500Y-111774000D01*
X167674500Y-120550500D01*
X167654815Y-120617539D01*
X167602011Y-120663294D01*
X167550500Y-120674500D01*
X159224000Y-120674500D01*
X159156961Y-120654815D01*
X159111206Y-120602011D01*
X159100000Y-120550500D01*
X159100000Y-111774000D01*
X159119685Y-111706961D01*
X159172489Y-111661206D01*
X159224000Y-111650000D01*
X167550500Y-111650000D01*
X167617539Y-111669685D01*
G37*
G04 #@! TD.AperFunction*
G04 #@! TA.AperFunction,Conductor*
G36*
X145618039Y-110894685D02*
G01*
X145663794Y-110947489D01*
X145675000Y-110999000D01*
X145675000Y-112743480D01*
X145655315Y-112810519D01*
X145632203Y-112837192D01*
X145588659Y-112874922D01*
X145494433Y-112983664D01*
X145494430Y-112983668D01*
X145434664Y-113114534D01*
X145414976Y-113181582D01*
X145394500Y-113324001D01*
X145394500Y-116539254D01*
X145385855Y-116568694D01*
X145379332Y-116598681D01*
X145375577Y-116603696D01*
X145374815Y-116606293D01*
X145358181Y-116626935D01*
X145276935Y-116708181D01*
X145215612Y-116741666D01*
X145189254Y-116744500D01*
X142583525Y-116744500D01*
X142516486Y-116724815D01*
X142470731Y-116672011D01*
X142460787Y-116602853D01*
X142477987Y-116555403D01*
X142484809Y-116544342D01*
X142484808Y-116544342D01*
X142484814Y-116544334D01*
X142539999Y-116377797D01*
X142550500Y-116275009D01*
X142550499Y-112074992D01*
X142539999Y-111972203D01*
X142520542Y-111913485D01*
X142518140Y-111843657D01*
X142550567Y-111786800D01*
X143374549Y-110962819D01*
X143435872Y-110929334D01*
X143462230Y-110926500D01*
X145321212Y-110926500D01*
X145418754Y-110907096D01*
X145466205Y-110897658D01*
X145498119Y-110884438D01*
X145506295Y-110882812D01*
X145510636Y-110880023D01*
X145545571Y-110875000D01*
X145551000Y-110875000D01*
X145618039Y-110894685D01*
G37*
G04 #@! TD.AperFunction*
G04 #@! TA.AperFunction,Conductor*
G36*
X145618039Y-100345185D02*
G01*
X145663794Y-100397989D01*
X145675000Y-100449500D01*
X145675000Y-101337269D01*
X145655315Y-101404308D01*
X145638681Y-101424950D01*
X145517050Y-101546580D01*
X145517044Y-101546588D01*
X145467812Y-101620268D01*
X145467813Y-101620269D01*
X145434921Y-101669496D01*
X145434914Y-101669508D01*
X145378342Y-101806086D01*
X145378340Y-101806092D01*
X145349500Y-101951079D01*
X145349500Y-108961062D01*
X145329815Y-109028101D01*
X145313181Y-109048743D01*
X144972743Y-109389181D01*
X144911420Y-109422666D01*
X144885062Y-109425500D01*
X143026076Y-109425500D01*
X142997242Y-109431234D01*
X142997243Y-109431235D01*
X142881093Y-109454339D01*
X142881083Y-109454342D01*
X142801081Y-109487479D01*
X142801082Y-109487480D01*
X142744505Y-109510915D01*
X142697678Y-109542205D01*
X142697676Y-109542206D01*
X142621589Y-109593043D01*
X142621584Y-109593047D01*
X142200951Y-110013681D01*
X142139628Y-110047166D01*
X142113270Y-110050000D01*
X140776362Y-110050000D01*
X140709323Y-110030315D01*
X140688685Y-110013685D01*
X140675000Y-110000000D01*
X140675000Y-110000001D01*
X140675000Y-111537270D01*
X140655315Y-111604309D01*
X140638681Y-111624951D01*
X140607289Y-111656342D01*
X140515187Y-111805663D01*
X140515186Y-111805666D01*
X140460001Y-111972203D01*
X140460001Y-111972204D01*
X140460000Y-111972204D01*
X140449500Y-112074983D01*
X140449500Y-112074996D01*
X140449501Y-116075500D01*
X140429816Y-116142539D01*
X140377012Y-116188294D01*
X140325501Y-116199500D01*
X139274500Y-116199500D01*
X139207461Y-116179815D01*
X139161706Y-116127011D01*
X139150500Y-116075500D01*
X139150499Y-112074998D01*
X139150498Y-112074981D01*
X139139999Y-111972203D01*
X139139998Y-111972200D01*
X139120542Y-111913485D01*
X139084814Y-111805666D01*
X139073177Y-111786800D01*
X138993461Y-111657558D01*
X138975000Y-111592462D01*
X138975000Y-110000000D01*
X138825000Y-109850000D01*
X134274000Y-109850000D01*
X134206961Y-109830315D01*
X134161206Y-109777511D01*
X134150000Y-109726000D01*
X134150000Y-100449500D01*
X134169685Y-100382461D01*
X134222489Y-100336706D01*
X134274000Y-100325500D01*
X145551000Y-100325500D01*
X145618039Y-100345185D01*
G37*
G04 #@! TD.AperFunction*
G04 #@! TA.AperFunction,Conductor*
G36*
X148145878Y-101573259D02*
G01*
X148190166Y-101627300D01*
X148200000Y-101675695D01*
X148200000Y-103000000D01*
X148450000Y-103250000D01*
X149437270Y-103250000D01*
X149504309Y-103269685D01*
X149524951Y-103286319D01*
X149671586Y-103432954D01*
X149694422Y-103448211D01*
X149745270Y-103482186D01*
X149794505Y-103515084D01*
X149851080Y-103538518D01*
X149931088Y-103571659D01*
X150047241Y-103594763D01*
X150066468Y-103598587D01*
X150076081Y-103600500D01*
X150076082Y-103600500D01*
X150076083Y-103600500D01*
X150223918Y-103600500D01*
X150899138Y-103600500D01*
X150966177Y-103620185D01*
X150986819Y-103636819D01*
X151200000Y-103850000D01*
X151359654Y-103850000D01*
X151426693Y-103869685D01*
X151432531Y-103873676D01*
X151460319Y-103893865D01*
X151617592Y-103974000D01*
X151631493Y-103981083D01*
X151722845Y-104010764D01*
X151814199Y-104040447D01*
X152003945Y-104070500D01*
X152003946Y-104070500D01*
X152196054Y-104070500D01*
X152196055Y-104070500D01*
X152385801Y-104040447D01*
X152568509Y-103981082D01*
X152739681Y-103893865D01*
X152767460Y-103873681D01*
X152833266Y-103850202D01*
X152840346Y-103850000D01*
X153899654Y-103850000D01*
X153966693Y-103869685D01*
X153972531Y-103873676D01*
X154000319Y-103893865D01*
X154157592Y-103974000D01*
X154171493Y-103981083D01*
X154262845Y-104010764D01*
X154354199Y-104040447D01*
X154543945Y-104070500D01*
X154543946Y-104070500D01*
X154736054Y-104070500D01*
X154736055Y-104070500D01*
X154925801Y-104040447D01*
X155108509Y-103981082D01*
X155279681Y-103893865D01*
X155307460Y-103873681D01*
X155373266Y-103850202D01*
X155380346Y-103850000D01*
X155676000Y-103850000D01*
X155743039Y-103869685D01*
X155788794Y-103922489D01*
X155800000Y-103974000D01*
X155800000Y-104698638D01*
X155791355Y-104728078D01*
X155784832Y-104758065D01*
X155781077Y-104763080D01*
X155780315Y-104765677D01*
X155763681Y-104786319D01*
X155736319Y-104813681D01*
X155674996Y-104847166D01*
X155648638Y-104850000D01*
X148175192Y-104850000D01*
X148109297Y-104830650D01*
X148109191Y-104830823D01*
X148108562Y-104830435D01*
X148108153Y-104830315D01*
X148106793Y-104829344D01*
X147958705Y-104738001D01*
X147958699Y-104737998D01*
X147958697Y-104737997D01*
X147928763Y-104728078D01*
X147797709Y-104684651D01*
X147698346Y-104674500D01*
X147101662Y-104674500D01*
X147101644Y-104674501D01*
X147002281Y-104684652D01*
X147000440Y-104685046D01*
X146999278Y-104684958D01*
X146995557Y-104685339D01*
X146995489Y-104684674D01*
X146930766Y-104679822D01*
X146874977Y-104637758D01*
X146850786Y-104572210D01*
X146850500Y-104563790D01*
X146850500Y-102387229D01*
X146870185Y-102320190D01*
X146886819Y-102299548D01*
X147449548Y-101736819D01*
X147510871Y-101703334D01*
X147537229Y-101700500D01*
X147656613Y-101700500D01*
X147656616Y-101700500D01*
X147727196Y-101694086D01*
X147889606Y-101643478D01*
X148011851Y-101569577D01*
X148079404Y-101551742D01*
X148145878Y-101573259D01*
G37*
G04 #@! TD.AperFunction*
G04 #@! TA.AperFunction,Conductor*
G36*
X131090677Y-111519685D02*
G01*
X131111319Y-111536319D01*
X131163681Y-111588681D01*
X131197166Y-111650004D01*
X131200000Y-111676362D01*
X131200000Y-117075000D01*
X131846146Y-117075000D01*
X131911243Y-117093462D01*
X131941294Y-117111998D01*
X131941297Y-117111999D01*
X131941303Y-117112003D01*
X132102292Y-117165349D01*
X132201655Y-117175500D01*
X132798344Y-117175499D01*
X132798352Y-117175498D01*
X132798355Y-117175498D01*
X132852760Y-117169940D01*
X132897708Y-117165349D01*
X133058697Y-117112003D01*
X133086774Y-117094685D01*
X133088757Y-117093462D01*
X133153854Y-117075000D01*
X137512270Y-117075000D01*
X137579309Y-117094685D01*
X137599952Y-117111319D01*
X137917048Y-117428415D01*
X137917049Y-117428416D01*
X138021584Y-117532951D01*
X138021585Y-117532952D01*
X138144498Y-117615080D01*
X138144511Y-117615087D01*
X138281082Y-117671656D01*
X138281087Y-117671658D01*
X138281091Y-117671658D01*
X138281092Y-117671659D01*
X138426079Y-117700500D01*
X138426082Y-117700500D01*
X139851000Y-117700500D01*
X139918039Y-117720185D01*
X139963794Y-117772989D01*
X139975000Y-117824500D01*
X139975000Y-120550500D01*
X139955315Y-120617539D01*
X139902511Y-120663294D01*
X139851000Y-120674500D01*
X125449500Y-120674500D01*
X125382461Y-120654815D01*
X125336706Y-120602011D01*
X125325500Y-120550500D01*
X125325500Y-111624000D01*
X125345185Y-111556961D01*
X125397989Y-111511206D01*
X125449500Y-111500000D01*
X131023638Y-111500000D01*
X131090677Y-111519685D01*
G37*
G04 #@! TD.AperFunction*
G04 #@! TA.AperFunction,Conductor*
G36*
X158465677Y-113219685D02*
G01*
X158486319Y-113236319D01*
X158563681Y-113313681D01*
X158597166Y-113375004D01*
X158600000Y-113401362D01*
X158600000Y-120550500D01*
X158580315Y-120617539D01*
X158527511Y-120663294D01*
X158476000Y-120674500D01*
X140624000Y-120674500D01*
X140556961Y-120654815D01*
X140511206Y-120602011D01*
X140500000Y-120550500D01*
X140500000Y-117374000D01*
X140519685Y-117306961D01*
X140572489Y-117261206D01*
X140624000Y-117250000D01*
X145450000Y-117250000D01*
X145900000Y-116800000D01*
X145900000Y-113324000D01*
X145919685Y-113256961D01*
X145972489Y-113211206D01*
X146024000Y-113200000D01*
X158398638Y-113200000D01*
X158465677Y-113219685D01*
G37*
G04 #@! TD.AperFunction*
G04 #@! TA.AperFunction,Conductor*
G36*
X159818039Y-100345185D02*
G01*
X159863794Y-100397989D01*
X159875000Y-100449500D01*
X159875000Y-100767680D01*
X159869386Y-100804570D01*
X159855914Y-100847802D01*
X159852707Y-100883094D01*
X159849500Y-100918384D01*
X159849500Y-101431616D01*
X159855914Y-101502196D01*
X159869386Y-101545431D01*
X159875000Y-101582319D01*
X159875000Y-101950000D01*
X159925000Y-102000000D01*
X160195260Y-102000000D01*
X160253215Y-102016155D01*
X160253555Y-102015400D01*
X160258514Y-102017632D01*
X160259405Y-102017880D01*
X160260394Y-102018478D01*
X160422804Y-102069086D01*
X160493384Y-102075500D01*
X160493387Y-102075500D01*
X161156613Y-102075500D01*
X161156616Y-102075500D01*
X161227196Y-102069086D01*
X161389606Y-102018478D01*
X161390594Y-102017880D01*
X161391485Y-102017632D01*
X161396445Y-102015400D01*
X161396784Y-102016155D01*
X161406847Y-102013349D01*
X161419805Y-102005023D01*
X161454740Y-102000000D01*
X161701000Y-102000000D01*
X161768039Y-102019685D01*
X161813794Y-102072489D01*
X161825000Y-102124000D01*
X161825000Y-102305277D01*
X161818706Y-102344280D01*
X161784565Y-102447311D01*
X161784563Y-102447321D01*
X161774500Y-102545818D01*
X161774500Y-103079181D01*
X161784563Y-103177683D01*
X161818706Y-103280717D01*
X161825000Y-103319721D01*
X161825000Y-103748637D01*
X161805315Y-103815676D01*
X161799253Y-103823197D01*
X161800000Y-103825000D01*
X161875500Y-103825000D01*
X161942539Y-103844685D01*
X161988294Y-103897489D01*
X161999500Y-103949000D01*
X161999500Y-104373918D01*
X161999500Y-104373920D01*
X161999499Y-104373920D01*
X162028340Y-104518907D01*
X162028343Y-104518917D01*
X162084912Y-104655488D01*
X162084919Y-104655501D01*
X162167048Y-104778415D01*
X162167051Y-104778419D01*
X162271580Y-104882948D01*
X162271584Y-104882951D01*
X162394498Y-104965080D01*
X162394511Y-104965087D01*
X162479577Y-105000322D01*
X162531087Y-105021658D01*
X162531091Y-105021658D01*
X162531092Y-105021659D01*
X162676079Y-105050500D01*
X162676082Y-105050500D01*
X162823920Y-105050500D01*
X162933808Y-105028641D01*
X162968913Y-105021658D01*
X163105495Y-104965084D01*
X163228416Y-104882951D01*
X163332951Y-104778416D01*
X163415084Y-104655495D01*
X163471658Y-104518913D01*
X163500500Y-104373918D01*
X163500500Y-103949000D01*
X163520185Y-103881961D01*
X163572989Y-103836206D01*
X163624500Y-103825000D01*
X163775000Y-103825000D01*
X163925000Y-103675000D01*
X163925000Y-100449500D01*
X163944685Y-100382461D01*
X163997489Y-100336706D01*
X164049000Y-100325500D01*
X167550500Y-100325500D01*
X167617539Y-100345185D01*
X167663294Y-100397989D01*
X167674500Y-100449500D01*
X167674500Y-111020500D01*
X167654815Y-111087539D01*
X167602011Y-111133294D01*
X167550500Y-111144500D01*
X159224000Y-111144500D01*
X159223991Y-111144500D01*
X159223990Y-111144501D01*
X159116549Y-111156052D01*
X159116537Y-111156054D01*
X159065027Y-111167260D01*
X158962497Y-111201385D01*
X158962496Y-111201385D01*
X158956383Y-111205315D01*
X158889343Y-111225000D01*
X146304500Y-111225000D01*
X146237461Y-111205315D01*
X146191706Y-111152511D01*
X146180500Y-111101000D01*
X146180500Y-110999010D01*
X146180500Y-110999000D01*
X146168947Y-110891544D01*
X146157741Y-110840033D01*
X146157637Y-110839722D01*
X146123616Y-110737502D01*
X146123613Y-110737496D01*
X146045828Y-110616462D01*
X146045825Y-110616457D01*
X146038967Y-110608543D01*
X146009942Y-110544989D01*
X146019885Y-110475830D01*
X146044996Y-110439662D01*
X146682951Y-109801708D01*
X146765084Y-109678787D01*
X146821658Y-109542205D01*
X146850500Y-109397210D01*
X146850500Y-109249375D01*
X146850500Y-105314367D01*
X146870185Y-105247328D01*
X146922989Y-105201573D01*
X146960026Y-105191215D01*
X146991694Y-105187493D01*
X146992695Y-105187663D01*
X147011215Y-105186748D01*
X147013624Y-105186846D01*
X147024468Y-105190516D01*
X147042661Y-105188658D01*
X147042664Y-105188658D01*
X147044159Y-105188505D01*
X147045001Y-105188419D01*
X147045041Y-105188415D01*
X147053655Y-105187534D01*
X147053656Y-105187535D01*
X147121128Y-105180642D01*
X147133730Y-105180000D01*
X147665495Y-105180000D01*
X147704487Y-105186290D01*
X147729861Y-105194698D01*
X147755943Y-105206861D01*
X147834402Y-105255256D01*
X147834948Y-105255626D01*
X147835154Y-105255720D01*
X147841417Y-105259583D01*
X147841417Y-105259582D01*
X147843173Y-105260665D01*
X147843173Y-105260666D01*
X147843802Y-105261054D01*
X147843810Y-105261058D01*
X147864653Y-105273914D01*
X147865954Y-105273983D01*
X147882064Y-105280965D01*
X147909124Y-105295046D01*
X147912582Y-105295981D01*
X147923736Y-105299571D01*
X147965710Y-105315310D01*
X147965839Y-105315369D01*
X147966248Y-105315489D01*
X147966248Y-105315488D01*
X147966871Y-105315670D01*
X147966871Y-105315671D01*
X148032766Y-105335021D01*
X148032776Y-105335024D01*
X148175192Y-105355500D01*
X148175195Y-105355500D01*
X155648640Y-105355500D01*
X155658786Y-105354955D01*
X155702678Y-105352603D01*
X155702686Y-105352602D01*
X155702688Y-105352602D01*
X155702689Y-105352602D01*
X155709682Y-105351849D01*
X155729036Y-105349769D01*
X155729046Y-105349767D01*
X155729049Y-105349767D01*
X155738648Y-105348211D01*
X155782448Y-105341114D01*
X155917257Y-105290832D01*
X155978580Y-105257347D01*
X156093761Y-105171123D01*
X156121123Y-105143761D01*
X156157288Y-105103500D01*
X156167780Y-105090478D01*
X156173908Y-105082876D01*
X156173912Y-105082869D01*
X156173922Y-105082858D01*
X156205622Y-105038888D01*
X156210298Y-105028641D01*
X156228501Y-105000322D01*
X156252071Y-104937124D01*
X156265366Y-104907999D01*
X156266128Y-104905402D01*
X156266127Y-104905401D01*
X156273082Y-104881699D01*
X156273096Y-104881652D01*
X156274339Y-104877420D01*
X156278781Y-104865512D01*
X156281465Y-104853171D01*
X156284408Y-104843149D01*
X156284897Y-104841590D01*
X156285024Y-104841052D01*
X156294029Y-104778419D01*
X156305500Y-104698638D01*
X156305500Y-103974000D01*
X156293947Y-103866544D01*
X156282741Y-103815033D01*
X156256345Y-103735729D01*
X156250000Y-103696570D01*
X156250000Y-100449500D01*
X156269685Y-100382461D01*
X156322489Y-100336706D01*
X156374000Y-100325500D01*
X159751000Y-100325500D01*
X159818039Y-100345185D01*
G37*
G04 #@! TD.AperFunction*
G04 #@! TA.AperFunction,Conductor*
G36*
X133587539Y-100345185D02*
G01*
X133633294Y-100397989D01*
X133644500Y-100449500D01*
X133644500Y-109726000D01*
X133644501Y-109726009D01*
X133656052Y-109833450D01*
X133656054Y-109833462D01*
X133667260Y-109884972D01*
X133701383Y-109987497D01*
X133701386Y-109987503D01*
X133779171Y-110108537D01*
X133779179Y-110108548D01*
X133824923Y-110161340D01*
X133824926Y-110161343D01*
X133824930Y-110161347D01*
X133933664Y-110255567D01*
X133933667Y-110255568D01*
X133933668Y-110255569D01*
X134064542Y-110315339D01*
X134068685Y-110316884D01*
X134067969Y-110318803D01*
X134083159Y-110328562D01*
X134107203Y-110339543D01*
X134112092Y-110347151D01*
X134119702Y-110352040D01*
X134130686Y-110376083D01*
X134144977Y-110398321D01*
X134146874Y-110411520D01*
X134148735Y-110415592D01*
X134150000Y-110433256D01*
X134150000Y-110448637D01*
X134130315Y-110515676D01*
X134113681Y-110536318D01*
X134019999Y-110629999D01*
X134020000Y-110630000D01*
X134050000Y-110630000D01*
X134123681Y-110556319D01*
X134185004Y-110522834D01*
X134211362Y-110520000D01*
X137116000Y-110520000D01*
X137183039Y-110539685D01*
X137228794Y-110592489D01*
X137240000Y-110644000D01*
X137240000Y-111572270D01*
X137220315Y-111639309D01*
X137211390Y-111650384D01*
X137211766Y-111650681D01*
X137207290Y-111656341D01*
X137115187Y-111805663D01*
X137115186Y-111805666D01*
X137060001Y-111972203D01*
X137060001Y-111972204D01*
X137060000Y-111972204D01*
X137049500Y-112074983D01*
X137049500Y-116275001D01*
X137049501Y-116275018D01*
X137060000Y-116377796D01*
X137069511Y-116406495D01*
X137071913Y-116476323D01*
X137036182Y-116536365D01*
X136973662Y-116567559D01*
X136951805Y-116569500D01*
X133153851Y-116569500D01*
X133015932Y-116588679D01*
X132950838Y-116607140D01*
X132950827Y-116607144D01*
X132881892Y-116637476D01*
X132870956Y-116641683D01*
X132804498Y-116663705D01*
X132765494Y-116669999D01*
X132234504Y-116669999D01*
X132195501Y-116663705D01*
X132129041Y-116641683D01*
X132118102Y-116637475D01*
X132049169Y-116607142D01*
X132049159Y-116607139D01*
X131984067Y-116588679D01*
X131846148Y-116569500D01*
X131846146Y-116569500D01*
X131829500Y-116569500D01*
X131762461Y-116549815D01*
X131716706Y-116497011D01*
X131705500Y-116445500D01*
X131705500Y-111676359D01*
X131704107Y-111650384D01*
X131702603Y-111622322D01*
X131699769Y-111595964D01*
X131691114Y-111542552D01*
X131640832Y-111407743D01*
X131607347Y-111346420D01*
X131558814Y-111281588D01*
X131534398Y-111216125D01*
X131549250Y-111147853D01*
X131570395Y-111119604D01*
X131660000Y-111030000D01*
X131659999Y-111030000D01*
X131640001Y-111030000D01*
X131640000Y-111030000D01*
X131575566Y-111094434D01*
X131561530Y-111108470D01*
X131500206Y-111141954D01*
X131430515Y-111136970D01*
X131401322Y-111121365D01*
X131363975Y-111094434D01*
X131363976Y-111094434D01*
X131363974Y-111094433D01*
X131286127Y-111058881D01*
X131233100Y-111034663D01*
X131166055Y-111014976D01*
X131103992Y-111006053D01*
X131023638Y-110994500D01*
X125449500Y-110994500D01*
X125382461Y-110974815D01*
X125336706Y-110922011D01*
X125325500Y-110870500D01*
X125325500Y-100449500D01*
X125345185Y-100382461D01*
X125397989Y-100336706D01*
X125449500Y-100325500D01*
X133520500Y-100325500D01*
X133587539Y-100345185D01*
G37*
G04 #@! TD.AperFunction*
M02*
